<mxfile host="app.diagrams.net">
  <diagram name="Class Diagram">
    <mxGraphModel dx="844" dy="613" grid="1" gridSize="10" guides="1" tooltips="1" connect="1" arrows="1" fold="1" page="1" pageScale="1" pageWidth="827" pageHeight="1169" math="0" shadow="0">
      <root>
        <mxCell id="0" />
        <mxCell id="1" parent="0" />
        
        <!-- ObservationObject Class -->
        <mxCell id="2" value="ObservationObject" style="rounded=0;whiteSpace=wrap;html=1;" vertex="1" parent="1">
          <mxGeometry x="100" y="100" width="160" height="160" as="geometry" />
        </mxCell>
        <mxCell id="3" value="Name: string&#xa;InstallationDate: DateTime&#xa;Location: string&#xa;Description: string&#xa;ResponsiblePerson: User&#xa;AccessLevel: int" style="text;html=1;align=left;verticalAlign=top;" vertex="1" parent="2">
          <mxGeometry width="160" height="120" as="geometry" />
        </mxCell>
        
        <!-- User Class -->
        <mxCell id="4" value="User" style="rounded=0;whiteSpace=wrap;html=1;" vertex="1" parent="1">
          <mxGeometry x="400" y="100" width="160" height="160" as="geometry" />
        </mxCell>
        <mxCell id="5" value="Login: string&#xa;Password: string&#xa;FirstName: string&#xa;LastName: string&#xa;ContactInfo: string&#xa;Role: Role" style="text;html=1;align=left;verticalAlign=top;" vertex="1" parent="4">
          <mxGeometry width="160" height="120" as="geometry" />
        </mxCell>
        
        <!-- Camera Class -->
        <mxCell id="6" value="Camera" style="rounded=0;whiteSpace=wrap;html=1;" vertex="1" parent="1">
          <mxGeometry x="100" y="300" width="160" height="160" as="geometry" />
        </mxCell>
        <mxCell id="7" value="Model: string&#xa;Resolution: string&#xa;Location: string&#xa;Status: bool&#xa;ViewingAngle: float" style="text;html=1;align=left;verticalAlign=top;" vertex="1" parent="6">
          <mxGeometry width="160" height="120" as="geometry" />
        </mxCell>
        
        <!-- Recording Class -->
        <mxCell id="8" value="Recording" style="rounded=0;whiteSpace=wrap;html=1;" vertex="1" parent="1">
          <mxGeometry x="400" y="300" width="160" height="160" as="geometry" />
        </mxCell>
        <mxCell id="9" value="DateTime: DateTime&#xa;Duration: TimeSpan&#xa;ObservationObject: ObservationObject&#xa;Event: Event" style="text;html=1;align=left;verticalAlign=top;" vertex="1" parent="8">
          <mxGeometry width="160" height="120" as="geometry" />
        </mxCell>
        
        <!-- Event Class -->
        <mxCell id="10" value="Event" style="rounded=0;whiteSpace=wrap;html=1;" vertex="1" parent="1">
          <mxGeometry x="250" y="500" width="160" height="160" as="geometry" />
        </mxCell>
        <mxCell id="11" value="EventType: string&#xa;EventDateTime: DateTime&#xa;Camera: Camera&#xa;PriorityLevel: int" style="text;html=1;align=left;verticalAlign=top;" vertex="1" parent="10">
          <mxGeometry width="160" height="120" as="geometry" />
        </mxCell>
        
        <!-- Relationships -->
        <mxCell id="12" edge="1" source="2" target="6" parent="1">
          <mxGeometry relative="1" as="geometry" />
        </mxCell>
        <mxCell id="13" edge="1" source="2" target="8" parent="1">
          <mxGeometry relative="1" as="geometry" />
        </mxCell>
        <mxCell id="14" edge="1" source="4" target="2" parent="1">
          <mxGeometry relative="1" as="geometry" />
        </mxCell>
        <mxCell id="15" edge="1" source="6" target="10" parent="1">
          <mxGeometry relative="1" as="geometry" />
        </mxCell>
        <mxCell id="16" edge="1" source="8" target="10" parent="1">
          <mxGeometry relative="1" as="geometry" />
        </mxCell>
        
        <!-- Role Enum -->
        <mxCell id="17" value="Role (enum)&#xa;- Administrator&#xa;- Operator&#xa;- Supervisor" style="text;html=1;align=left;verticalAlign=top;" vertex="1" parent="1">
          <mxGeometry x="600" y="100" width="160" height="90" as="geometry" />
        </mxCell>
      </root>
    </mxGraphModel>
  </diagram>
</mxfile>
